<svg aria-labelledby="wordmark" xmlns="http://www.w3.org/2000/svg" viewBox="-166 -9 517 65"><g data-name="Layer 2"><g data-name="Layer 1"><g data-name="new shield"><path d="M4.2.2a1.57 1.57 0 00.53-.05.23.23 0 00.16-.15A.21.21 0 015 0a4 4 0 00-.11 1.08.12.12 0 01-.14 0 1 1 0 00-.2-.55 1.47 1.47 0 00-.89-.2h-.51c-.23 0-.23 0-.23.29V4a2.35 2.35 0 00.1.92.52.52 0 00.35.08h.26a.09.09 0 010 .12H1.58a.08.08 0 010-.11h.34a.42.42 0 00.33-.13 2.18 2.18 0 00.1-.88V.67c0-.28 0-.29-.24-.29h-.44C1.2.38.88.38.72.57a2.32 2.32 0 00-.35.53s-.12 0-.13-.05a5.47 5.47 0 00.28-1 .21.21 0 01.11 0 .17.17 0 00.12.14 2.47 2.47 0 00.54 0zm8.12 1.18a2 2 0 00-.11-.9.56.56 0 00-.35-.15h-.18V.2h1.78v.13h-.14a.57.57 0 00-.32.16 2.12 2.12 0 00-.1.9v.84c0 .21 0 .24.36.24h2.22c.34 0 .35 0 .35-.24v-.84a2.52 2.52 0 00-.1-.9c-.07-.1-.23-.12-.35-.15h-.18a.08.08 0 010-.12h1.74a.09.09 0 010 .13h-.16a.48.48 0 00-.34.14 2.19 2.19 0 00-.11.91V4a2.16 2.16 0 00.11.91.49.49 0 00.34.14H17a.09.09 0 010 .12h-1.81a.08.08 0 010-.11h.17a.4.4 0 00.34-.16 2.39 2.39 0 00.1-.89V3c0-.23 0-.24-.35-.24h-2.2c-.35 0-.36 0-.36.24v1a2.27 2.27 0 00.1.9.53.53 0 00.35.15h.24a.09.09 0 010 .12h-1.8V5h.11a.54.54 0 00.34-.16 2.09 2.09 0 00.11-.9zM24.63 4a2 2 0 01-.12.9.47.47 0 01-.36.18h-.3v.12h3.71a4.16 4.16 0 00.31-1s-.1-.06-.13 0c-.33.77-.66.87-1.57.86-.65 0-.8-.09-.89-.18a1.63 1.63 0 01-.12-.88V2.92c0-.23 0-.26.22-.26h.42a3.25 3.25 0 01.69.08.37.37 0 01.2.27l.09.3h.13V1.86c0-.15-.1 0-.13 0l-.08.29c-.05.18-.13.26-.21.28a2.3 2.3 0 01-.69 0h-.42c-.22 0-.22 0-.22-.25V1a2.53 2.53 0 010-.55c0-.07.07-.1.33-.1h.41a4.49 4.49 0 01.73.06c.42.09.54.38.62.72h.13a7.81 7.81 0 00-.11-1 5.57 5.57 0 01-1 0h-2.22a.1.1 0 000 .13h.15a.56.56 0 01.34.17 1.91 1.91 0 01.11.88zm18.03-1a2.5 2.5 0 01-.51 1.69 2 2 0 01-1.46.54 2 2 0 01-1.43-.42 2.12 2.12 0 01-.57-1.7V1.4a2.21 2.21 0 00-.1-.92.61.61 0 00-.36-.15h-.16a.08.08 0 010-.12h1.82a.09.09 0 010 .13h-.19a.56.56 0 00-.35.15 2.22 2.22 0 00-.11.92V3c0 1.16.4 2 1.56 2s1.58-.85 1.58-2V2a5.79 5.79 0 00-.15-1.51.57.57 0 00-.37-.16h-.23a.1.1 0 010-.13h1.6a.1.1 0 010 .13H43a.36.36 0 00-.31.17 6.62 6.62 0 00-.03 1.5zM56 3.87v1.32a.1.1 0 01-.1.08 10.51 10.51 0 00-.73-.92l-2-2.27c-.27-.32-.55-.64-.85-.94-.07 0-.07.11-.07.47V3.3a5.82 5.82 0 00.14 1.56.52.52 0 00.37.16H53v.12h-1.6V5h.2a.37.37 0 00.31-.16 6.71 6.71 0 00.12-1.55V1.73c0-.78 0-1-.21-1.23a1 1 0 00-.42-.17h-.16a.07.07 0 010-.12H52a1.41 1.41 0 00.41 0 7.72 7.72 0 001.26 1.63l.75.81c.35.39 1.14 1.28 1.33 1.47V2a6.22 6.22 0 00-.16-1.51.65.65 0 00-.38-.16H55a.1.1 0 010-.13h1.6a.1.1 0 010 .13h-.2a.36.36 0 00-.32.17A6.62 6.62 0 0056 2zM66.15 4a2.18 2.18 0 00.11.92.47.47 0 00.35.15h.19v.12H65V5h.18a.55.55 0 00.36-.15 2.37 2.37 0 00.1-.92V1.4a2.21 2.21 0 00-.1-.92.61.61 0 00-.36-.15H65a.08.08 0 010-.12h1.84a.09.09 0 010 .13h-.19a.56.56 0 00-.35.15 2.22 2.22 0 00-.11.92zm9.51-2.63a8 8 0 00-.34-.8.56.56 0 00-.32-.23h-.22a.1.1 0 010-.13h1.62a.09.09 0 010 .13h-.19c-.17 0-.24 0-.24.14a6.72 6.72 0 00.39 1.09l.73 1.83c.17.43.31.71.35.8l.33-.72.42-1c.37-.89.54-1.35.66-1.68a1 1 0 00.09-.35s-.09-.09-.24-.12h-.24a.07.07 0 010-.12h1.45a.1.1 0 010 .13h-.22a.51.51 0 00-.42.31l-.81 1.72-.4.93a20.94 20.94 0 00-.77 2h-.13a9.12 9.12 0 00-.35-1zm12.73.01a2.21 2.21 0 00-.1-.88.53.53 0 00-.35-.17h-.14a.1.1 0 010-.13h2.28a5.57 5.57 0 001 0c0 .13.07.67.11 1h-.14c-.08-.34-.2-.63-.61-.72a4.52 4.52 0 00-.74-.06h-.41c-.25 0-.31 0-.32.1a1.69 1.69 0 000 .55v1.19c0 .23 0 .25.23.25h.42a2.3 2.3 0 00.69 0c.07 0 .16-.1.21-.28l.07-.29a.17.17 0 01.14 0v1.4a.12.12 0 01-.14 0L90.51 3a.39.39 0 00-.2-.27 3.25 3.25 0 00-.69-.08h-.47c-.22 0-.23 0-.23.26V4a1.53 1.53 0 00.13.82c.08.09.23.18.88.18.91 0 1.25-.09 1.57-.86h.14a3.77 3.77 0 01-.32 1h-3.61a.08.08 0 010-.11H88a.48.48 0 00.34-.14 2.09 2.09 0 00.11-.9zm12.53-.57c0-.27 0-.36.06-.4a1.29 1.29 0 01.48-.06 1.16 1.16 0 011.2 1.1v.12a1.07 1.07 0 01-.39 1 1.23 1.23 0 01-.81.2c-.33 0-.47 0-.5-.06s0-.07 0-.19zM100.35 4a2.37 2.37 0 01-.1.92.53.53 0 01-.35.08h-.19v.12h1.8V5h-.15a.47.47 0 01-.35-.15 2.18 2.18 0 01-.11-.85V3c0-.17 0-.19.42-.19a.52.52 0 01.51.26c.24.35.55.86.75 1.14a1.64 1.64 0 001.58.94.81.81 0 00.31 0V5.1a.79.79 0 01-.57-.19 7.88 7.88 0 01-1.53-2 .19.19 0 010-.18 1.37 1.37 0 00.93-1.23 1.2 1.2 0 00-.63-1.08 2.91 2.91 0 00-1.2-.22c-.56 0-1.13 0-1.69.07a.09.09 0 000 .12h.22a.4.4 0 01.33.18 2.33 2.33 0 01.09.83zM114.6.16h.26a3.27 3.27 0 01.13.87.09.09 0 01-.13 0 1 1 0 00-1.06-.8.85.85 0 00-.9.78v.11a1.2 1.2 0 00.65 1l.7.43a1.62 1.62 0 01.82 1.37 1.4 1.4 0 01-1.43 1.39h-.15a2.16 2.16 0 01-1.11-.31 1.9 1.9 0 01-.21-1 .08.08 0 01.11 0 1.48 1.48 0 001.33 1.12.88.88 0 001-.77.81.81 0 000-.16 1.19 1.19 0 00-.61-1.06l-.66-.41a1.52 1.52 0 01-.84-1.33A1.33 1.33 0 01113.8 0h.12a3.87 3.87 0 01.68.16zM124.72 4a2.18 2.18 0 00.11.92.46.46 0 00.32.17h.19v.12h-1.83V5h.18a.55.55 0 00.36-.15 2.37 2.37 0 00.1-.92V1.4a2.21 2.21 0 00-.1-.92.61.61 0 00-.36-.15h-.18a.07.07 0 010-.12h1.84a.09.09 0 010 .13h-.19a.56.56 0 00-.35.15 2.22 2.22 0 00-.11.92zm9.8-3.8a2.47 2.47 0 01-.52-.05.19.19 0 01-.13-.14h-.11a5.47 5.47 0 01-.28 1c0 .05.09.07.13.05a2.07 2.07 0 01.39-.53c.15-.17.48-.19.94-.19h.44c.22 0 .23 0 .23.29v3.3a2.18 2.18 0 01-.11.92.46.46 0 01-.3.19h-.33a.09.09 0 000 .12h2a.08.08 0 000-.11h-.26a.54.54 0 01-.36-.14 2.35 2.35 0 01-.1-.92V.68c0-.28 0-.29.23-.29h.52a1.47 1.47 0 01.89.2 1 1 0 01.2.55.12.12 0 00.14 0 4.4 4.4 0 01.07-1.08h-.1a.25.25 0 01-.17.15 1.53 1.53 0 01-.52.05zM148.41 4a2.35 2.35 0 00.1.92.51.51 0 00.35.13h.31a.09.09 0 010 .12h-2V5h.25a.46.46 0 00.33-.13 2.18 2.18 0 00.11-.92v-.32a2.41 2.41 0 000-.38 2.31 2.31 0 00-.21-.55l-.77-1.56a2.33 2.33 0 00-.4-.65.86.86 0 00-.32-.15H146a.1.1 0 010-.13h1.64a.09.09 0 010 .13l-.24.06c-.12 0-.18 0-.18.11a2.22 2.22 0 00.24.62c.29.58.57 1.16.87 1.73.26-.44.5-.88.75-1.33a4.6 4.6 0 00.48-1c0-.06-.09-.09-.24-.12h-.24a.08.08 0 010-.12h1.37a.1.1 0 010 .13l-.22.06a.56.56 0 00-.38.27 18.89 18.89 0 00-1 1.67 2.31 2.31 0 00-.36.78 2.44 2.44 0 000 .54zM162.82.25c1.47 0 2 1.42 2 2.59 0 1.62-.88 2.25-1.85 2.25-1.48 0-2-1.48-2-2.63C161 .78 162 .25 162.82.25zm.11-.17a2.59 2.59 0 00-2.64 2.52v.13a2.51 2.51 0 002.46 2.55h.17a2.54 2.54 0 002.59-2.48v-.16a2.44 2.44 0 00-2.29-2.59h-.29zm8.22 1.31a2.36 2.36 0 00-.1-.91c-.06-.09-.16-.12-.35-.16h-.11a.1.1 0 010-.13h2.19a8.34 8.34 0 001 0v1h-.13c-.06-.35-.16-.65-.58-.74a6 6 0 00-.74 0H172c-.2 0-.29 0-.3.09a1.75 1.75 0 000 .56v1.24c0 .24 0 .26.22.26h.27a3.77 3.77 0 001-.06c.1 0 .17-.08.22-.26l.08-.3a.11.11 0 01.13 0v1.46a.15.15 0 01-.13 0l-.09-.32a.37.37 0 00-.21-.26 3.77 3.77 0 00-1-.06h-.27c-.21 0-.22 0-.22.24V4a2.39 2.39 0 00.1.89.48.48 0 00.38.11h.28v.12h-1.91V5h.2a.52.52 0 00.35-.14 2.47 2.47 0 00.1-.9zM39.57 17.47c0 4.25 2.66 6.51 5.83 6.51a4.62 4.62 0 004.35-3 .26.26 0 01.35 0v.06a8 8 0 01-1 2.77l-.69.17a11.07 11.07 0 01-3.13.45 8.11 8.11 0 01-4.78-1.32 6.26 6.26 0 01-2.75-5.45 6.32 6.32 0 012.46-5.06 8.23 8.23 0 015.26-1.66 16.55 16.55 0 013.43.39 1.35 1.35 0 00.49.06c0 .54.16 1.69.31 2.78a.28.28 0 01-.35 0c-.33-1.22-1.15-2.82-4.15-2.82s-5.63 1.99-5.63 6.12zm21.34-3.16a5.65 5.65 0 00-.28-2.31 1.47 1.47 0 00-.91-.39l-.47-.08c-.08-.13-.08-.25 0-.31.9 0 1.52.06 2.3.06s1.48 0 2.34-.06c.1.06.08.18 0 .31l-.37.06a1.5 1.5 0 00-.92.41 6 6 0 00-.25 2.34v2.16c0 .56 0 .62.93.62h5.87c.87 0 .91 0 .91-.62v-2.19a6 6 0 00-.27-2.31c-.18-.25-.59-.31-.9-.39l-.39-.08a.2.2 0 010-.29c.78 0 1.45.06 2.21.06s1.54 0 2.34-.06a.21.21 0 010 .31l-.4.1a1.73 1.73 0 00-.9.35 5.91 5.91 0 00-.27 2.36V21a5.54 5.54 0 00.27 2.36 1.51 1.51 0 00.9.37l.46.08a.21.21 0 010 .3c-.78 0-1.61-.06-2.38-.06s-1.52 0-2.22.06a.21.21 0 010-.31l.41-.08a1.37 1.37 0 00.9-.43 6.15 6.15 0 00.25-2.3v-2.64c0-.59 0-.63-.91-.63h-5.84c-.89 0-.93 0-.93.63V21a5.78 5.78 0 00.27 2.34 1.47 1.47 0 00.9.39l.62.08a.25.25 0 010 .31c-.87 0-1.69-.06-2.59-.06s-1.29 0-2.09.06c-.09 0-.11-.22 0-.31l.3-.06a1.32 1.32 0 00.89-.41 5.77 5.77 0 00.22-2.34zM85.92 21a5.73 5.73 0 00.28 2.4 1.47 1.47 0 00.91.39l.49.08a.23.23 0 010 .31c-1 0-1.6-.06-2.38-.06s-1.36 0-2.38.06a.23.23 0 010-.31l.48-.08a1.5 1.5 0 00.92-.39 6.09 6.09 0 00.27-2.4v-6.63a6.11 6.11 0 00-.27-2.4 1.56 1.56 0 00-.92-.39l-.46-.08a.21.21 0 010-.31c1 0 1.58.06 2.38.06s1.53 0 2.4-.06a.21.21 0 010 .3l-.49.08a1.59 1.59 0 00-.91.39 5.94 5.94 0 00-.28 2.4zM99 17.47c0 4.25 2.65 6.51 5.83 6.51a4.63 4.63 0 004.32-2.98.25.25 0 01.35.06 7.77 7.77 0 01-.94 2.73l-.68.17a11.14 11.14 0 01-3.14.45 8.25 8.25 0 01-4.74-1.28 6.26 6.26 0 01-2.75-5.45 6.39 6.39 0 012.46-5.06 8.3 8.3 0 015.23-1.62 16.55 16.55 0 013.43.39 1.35 1.35 0 00.49.06 25.69 25.69 0 00.31 2.78.28.28 0 01-.35 0c-.33-1.22-1.15-2.82-4.16-2.82S99 13.34 99 17.47zm23 .86c-.57 0-.57 0-.37-.51l1-2.83c.35-1 .71-1.73.78-1.93a12 12 0 01.53 1.49L125 17.8c.18.51.2.53-.33.53zm3 .6c.43 0 .49 0 .63.41l.93 2.91a4 4 0 01.26 1c0 .29-.24.39-.65.47l-.56.12a.21.21 0 000 .3c.62 0 1.34-.06 2.12-.06 1 0 1.66 0 2.26.06a.23.23 0 000-.31l-.58-.1c-.8-.16-1-.51-1.6-2.2l-2.55-7.41c-.65-1.9-.88-2.71-1-3.05a.23.23 0 00-.25-.17 2 2 0 01-.94.74 2.89 2.89 0 01-.31 1.48l-2 5.17c-.94 2.42-1.35 3.45-1.74 4.33s-.56.93-1 1l-.74.18a.23.23 0 000 .31c.58 0 1.13-.06 1.83-.06a18.88 18.88 0 011.93.06.25.25 0 000-.31l-.72-.12c-.45-.08-.58-.2-.58-.41a2.89 2.89 0 01.21-1l1-3c.12-.39.16-.41.63-.41zm24.88 3.22a3.07 3.07 0 00.18 1.21.66.66 0 00.29.21.15.15 0 010 .18 3.74 3.74 0 00-1 .17 12.93 12.93 0 01-3.38.51 8 8 0 01-5.92-2.2 6.45 6.45 0 01-1.78-4.41 6.77 6.77 0 011.73-4.58 8 8 0 016.16-2.3 12.53 12.53 0 012.36.25 7.4 7.4 0 001.23.16 17.51 17.51 0 00.31 2.81.29.29 0 01-.35 0 4.91 4.91 0 00-.82-1.59 4.23 4.23 0 00-3.36-1.21c-3.86 0-5.53 2.71-5.53 5.75 0 3.89 2 6.89 6 6.89a3.21 3.21 0 002.17-.52 2.46 2.46 0 00.19-1.23v-.84a3.34 3.34 0 00-.25-1.68 2.1 2.1 0 00-1.13-.41l-.74-.11a.2.2 0 010-.29c.56 0 1.69.06 2.69.06.76 0 1.54 0 2.14-.06a.23.23 0 010 .32l-.43.07c-.35.08-.55.16-.64.36a2.89 2.89 0 00-.22 1.36zm17.05-10.76c3.82 0 5.24 3.68 5.24 6.74 0 4.2-2.28 5.85-4.8 5.85-3.85 0-5.28-3.86-5.28-6.84 0-4.39 2.67-5.75 4.84-5.75zm.29-.45a6.73 6.73 0 00-6.88 6.56v.32a6.5 6.5 0 006.38 6.62h.43A6.59 6.59 0 00173.9 18v-.38a6.39 6.39 0 00-6.1-6.67zM42.75 35.85a1.89 1.89 0 00.67-.06.39.39 0 00.21-.19.15.15 0 01.13 0 5.42 5.42 0 00-.14 1.4.12.12 0 01-.17 0 1.33 1.33 0 00-.26-.69 1.75 1.75 0 00-1.13-.31h-.66c-.25 0-.25 0-.25.4v4.18a3 3 0 00.13 1.16.75.75 0 00.45.18h.32a.11.11 0 010 .15h-2.57a.1.1 0 010-.14l.42-.05a.58.58 0 00.41-.17 2.67 2.67 0 00.14-1.16v-4.11c0-.36 0-.37-.3-.37h-.55c-.59 0-1 0-1.2.24a2.68 2.68 0 00-.4.69.12.12 0 01-.17-.07 7.14 7.14 0 00.36-1.3.11.11 0 01.13 0 .23.23 0 00.16.17 2.32 2.32 0 00.69.07zm6.86 1.49a3 3 0 00-.13-1.14.8.8 0 00-.48-.2h-.2v-.15h2.26V36h-.18a.78.78 0 00-.44.2 2.77 2.77 0 00-.13 1.14v1.07c0 .27 0 .3.46.3h2.81c.43 0 .45 0 .45-.3v-1.07a3.16 3.16 0 00-.13-1.14c-.09-.12-.29-.15-.44-.19h-.19a.09.09 0 010-.12h2.21a.11.11 0 010 .15h-.21a1 1 0 00-.44.17 3 3 0 00-.13 1.15v3.29a3 3 0 00.13 1.15.81.81 0 00.44.18h.23a.11.11 0 010 .15h-2.23a.1.1 0 010-.14h.21c.21-.05.35-.09.43-.21a2.83 2.83 0 00.09-1.16v-1.31c0-.29 0-.31-.45-.31h-2.76c-.44 0-.46 0-.46.31v1.32a2.58 2.58 0 00.14 1.14.7.7 0 00.43.19h.31a.11.11 0 010 .15h-2.27a.1.1 0 010-.14h.15a.67.67 0 00.44-.2 2.91 2.91 0 00.13-1.14zm12.17.01a2.68 2.68 0 00-.13-1.12.74.74 0 00-.44-.22H61a.1.1 0 010-.14h2.9a9.11 9.11 0 001.28 0c0 .16.1.85.14 1.21a.17.17 0 01-.19 0c-.1-.43-.25-.8-.78-.92a5.82 5.82 0 00-.93-.07h-.52c-.32 0-.39 0-.41.12a3.35 3.35 0 000 .7v1.51c0 .29 0 .32.29.32h.53a2.85 2.85 0 00.87-.07c.1 0 .2-.12.27-.36l.1-.36a.17.17 0 01.17 0v1.84a.14.14 0 01-.17 0l-.11-.38c-.06-.19-.13-.29-.26-.34a3.18 3.18 0 00-.87-.09h-.53c-.28 0-.29 0-.29.32v1.38a2 2 0 00.16 1c.11.12.3.22 1.13.22 1.15 0 1.57-.1 2-1.08h.17a5 5 0 01-.4 1.28h-4.74a.1.1 0 010-.14l.38-.06a.69.69 0 00.43-.18 2.74 2.74 0 00.14-1.14zm15.51 3.29a2 2 0 00.16 1c.09.11.3.22 1.14.22 1 0 1.36-.07 1.81-1.08a.17.17 0 01.17 0 5.22 5.22 0 01-.4 1.29h-4.43a.11.11 0 010-.15H76a.7.7 0 00.45-.19 3.06 3.06 0 00.13-1.17v-3.19a3.1 3.1 0 00-.13-1.17.83.83 0 00-.45-.2h-.27a.1.1 0 010-.14h2.36a.11.11 0 010 .15h-.23a.8.8 0 00-.44.19 2.75 2.75 0 00-.14 1.17zm9.46-1.34c-.28 0-.28 0-.18-.25l.49-1.38c.17-.48.34-.84.38-.94a7.09 7.09 0 01.26.73l.53 1.54c.08.25.09.26-.16.26zm1.44.29c.21 0 .24 0 .31.2l.5 1.42a2.15 2.15 0 01.12.5c0 .14-.11.19-.31.23l-.27.06a.11.11 0 000 .15h2.1V42h-.28c-.39-.08-.5-.25-.78-1.07l-1.25-3.61-.48-1.49c-.06-.17-.06-.08-.13-.08a.84.84 0 01-.45.36 1.48 1.48 0 01-.15.72l-1 2.52c-.46 1.18-.66 1.68-.85 2.11s-.27.45-.5.5l-.36.09a.11.11 0 000 .15h1.83a.11.11 0 000-.15l-.35-.06c-.22 0-.29-.1-.29-.2a1.53 1.53 0 01.11-.47l.5-1.48c.06-.19.08-.2.3-.2zM103 36a.65.65 0 00-.41.33c-.1.17-.25.49-.67 1.45l-.68 1.53a75.85 75.85 0 00-1.2 2.91H100a.09.09 0 01-.1 0c-.28-.78-.86-1.92-1.21-2.67-.4.85-.88 1.76-1.21 2.67h-.08a.14.14 0 01-.09 0c-.16-.4-.54-1.25-.66-1.53l-1.81-4a3.92 3.92 0 00-.29-.53.72.72 0 00-.34-.19l-.29.03v-.2h2a.11.11 0 010 .15h-.24c-.19 0-.27.07-.27.19a6.5 6.5 0 00.5 1.29L97.07 40c.15.33.48 1 .54 1.07.07-.12.21-.42.44-.91l.3-.62a2.15 2.15 0 00.14-.45 1.28 1.28 0 00-.11-.31l-1-2.17a1.76 1.76 0 00-.3-.51.67.67 0 00-.3-.16h-.23a.09.09 0 010-.12h2a.14.14 0 010 .15h-.24c-.22 0-.34.08-.34.2a1.13 1.13 0 00.1.37c.28.62.57 1.22.86 1.82.2-.42.39-.86.57-1.3a3.12 3.12 0 00.29-.91c0-.08 0-.13-.18-.16l-.37-.07a.1.1 0 010-.14H101a.11.11 0 010 .15h-.33a.56.56 0 00-.39.24 3.54 3.54 0 00-.39.64 48.3 48.3 0 00-.73 1.56 1.11 1.11 0 00-.1.29.93.93 0 00.12.33l.51 1.14c.21.46.41.86.46.93.06-.11.21-.42.37-.79L101 39l.76-1.89a4.6 4.6 0 00.29-.91c0-.14-.15-.18-.36-.22h-.27a.1.1 0 010-.14h1.78a.11.11 0 010 .15zm12.15-.2c.11 0 .21.05.32.06a4.22 4.22 0 01.18 1.11.13.13 0 01-.18 0 1.32 1.32 0 00-1.32-1 1.08 1.08 0 00-1.15 1V37a1.5 1.5 0 00.82 1.19l.89.55a2.06 2.06 0 011 1.73 1.78 1.78 0 01-1.8 1.77h-.2a2.56 2.56 0 01-1.4-.35 2.45 2.45 0 01-.28-1.28.11.11 0 01.14 0 1.89 1.89 0 001.75 1.39 1.11 1.11 0 001.23-1v-.17a1.48 1.48 0 00-.79-1.36l-.84-.52a2 2 0 01-1-1.69 1.67 1.67 0 011.73-1.61h.14a6.31 6.31 0 01.76.15zm7 3.08a2.84 2.84 0 002.5 3.15h.29a2.24 2.24 0 002.12-1.44.15.15 0 01.18 0 3.9 3.9 0 01-.46 1.33l-.33.08a5.29 5.29 0 01-1.53.22 3.93 3.93 0 01-2.33-.64 3.22 3.22 0 01-.73-4.49 3.9 3.9 0 01.59-.63 4.05 4.05 0 012.56-.81 8.56 8.56 0 011.68.19.45.45 0 00.23 0c0 .26.08.82.15 1.36a.17.17 0 01-.17 0 1.81 1.81 0 00-2-1.37 2.67 2.67 0 00-2.77 2.57 2.43 2.43 0 00.02.48zm11.05-1.54a3 3 0 00-.13-1.14.8.8 0 00-.45-.19h-.23v-.15h2.26v.15h-.18a.72.72 0 00-.44.2 2.77 2.77 0 00-.13 1.14v1.07c0 .27 0 .3.46.3h2.79c.43 0 .45 0 .45-.3v-1.08a3.16 3.16 0 00-.13-1.14c-.09-.12-.29-.15-.44-.19h-.19a.09.09 0 010-.12h2.21a.11.11 0 010 .15h-.21a1 1 0 00-.44.17 3 3 0 00-.13 1.15v3.29a3 3 0 00.13 1.15.81.81 0 00.44.18h.23a.11.11 0 010 .15h-2.24a.1.1 0 010-.14h.17a.63.63 0 00.44-.21 3 3 0 00.12-1.12v-1.35c0-.29 0-.31-.45-.31h-2.81c-.44 0-.46 0-.46.31v1.32a2.58 2.58 0 00.14 1.14.7.7 0 00.43.19h.31a.11.11 0 010 .15h-2.27a.1.1 0 010-.14h.15a.67.67 0 00.44-.2 2.91 2.91 0 00.13-1.14zm14.58-1.42c1.87 0 2.56 1.79 2.56 3.28 0 2-1.11 2.85-2.34 2.85-1.88 0-2.57-1.88-2.57-3.33 0-2.14 1.3-2.8 2.35-2.8zm.15-.22a3.28 3.28 0 00-3.36 3.2v.1a3.17 3.17 0 003.11 3.23h.23a3.21 3.21 0 003.24-3.17V39a3.1 3.1 0 00-3-3.24zm11.89.22c1.86 0 2.56 1.79 2.56 3.28 0 2-1.12 2.85-2.34 2.85-1.88 0-2.58-1.88-2.58-3.33 0-2.14 1.31-2.8 2.36-2.8zm.14-.22a3.27 3.27 0 00-3.35 3.19V39a3.16 3.16 0 003.09 3.23h.24a3.2 3.2 0 003.29-3.12v-.2a3.12 3.12 0 00-3-3.24zm10.19 4.94a2.11 2.11 0 00.15 1c.09.11.3.22 1.14.22 1.05 0 1.37-.07 1.81-1.08h.17a5.22 5.22 0 01-.4 1.29h-4.43a.11.11 0 010-.15h.27a.68.68 0 00.45-.19 2.88 2.88 0 00.13-1.17v-3.19a2.75 2.75 0 00-.13-1.17.8.8 0 00-.45-.19h-.27a.1.1 0 010-.14h2.36a.11.11 0 010 .15h-.22a.8.8 0 00-.45.19 2.91 2.91 0 00-.13 1.17z"/><path fill="none" stroke="#910028" stroke-width=".35" d="M37.77 30.17h136.14"/><path d="M28.33 31.92v-20.1a141.16 141.16 0 00-28.33 0v20.1c1.29 13.62 14.05 15.22 14.15 15.2 2.27-.41 13-2.56 14.16-15.2zm-23.78 5a3.7 3.7 0 00.84.37c.34.91 0 1.79-.19 1.42a8.71 8.71 0 01-.65-1.79zm0-9.88s-1.79 1.12-2.94.58c.86-.47 3.82-2.35 4.63-2.89a.66.66 0 00.66-.14c-.31 0-1.34.18-.82-.74.2.83 1.64.07 2.16 0 1.44-.33 1.43 1.21 1.31 1.84-.05.24.44.41.68.37-.41 1-1.12.06-1.2.45 0 .16-.51.28-.51.67s.21.25.23.66-.17.09-.12.52c.07.69 1.2-.09 1.68.1.23.09.39.3.62.26.06-.06 0-.32 0-.41s-.43-.24-.61-.54.18-1.05.37-1.28c.27 1.3 1.49.89 1.67 2.25.11.39-.42.81 0 1.44a2.22 2.22 0 000 2.47 1.2 1.2 0 00.32 1.35 2 2 0 000 1.48c-.37 0-.29-2.08-2.52-2.14a.62.62 0 000 .34c.26.47.62.44.54 1.55 0 .37-.24-.07-.36-.17a1.21 1.21 0 01-.6-1 2 2 0 00-.76 2s-.19-.54-.42-1.1c0 0 .91-1.15 1.06-1.41 1.88-3.38-1.21 1.09-1.22 1.07a5.18 5.18 0 00-.4-.82 6.57 6.57 0 00.77-1.1c1.45-3-.86 1-1 .93s-.32-.36-.43-.28c0 .46-.13.4-.1.87a5.37 5.37 0 01-1.09 1 6.15 6.15 0 01-.06-.87c.18-.22.89-1 1-1.21 2.38-3.74-1.11.9-1.12.86a1.56 1.56 0 00-.42-.6 16 16 0 001-1.44c1.45-3-1.16 1.32-1.19 1.3l-.14-.06a5.22 5.22 0 01.18-1.35c.19-1-.33-.2-.47 1.37a1.68 1.68 0 00-.59.17c.08.42.18.1.36.5s-.3 1.27.14 1.85c.17.23.18.19.15.33-.27 0-.43 0-.6.21a11.24 11.24 0 01-.24-3.75 11.53 11.53 0 00.16-1.77c-.1 0-1.67 4-2 4.83-.67-.22.41-3.73 1.78-5.42.13-.54-.72.54-1.22 1s-1.06.91-1.7.74c.83-.87 2.71-2.5 2.92-2.9s-1.29 1.08-2.83.55c1-.54 3.33-1.73 3.33-2.56zm2.78 7.64a3.33 3.33 0 00.09 1c.17.57.09.4-.15.2a1.94 1.94 0 01-.46-.63c0-.17.12-.18.52-.58zm3.73-9.15c-.22-.38.27-.75.27-.75 0 1.08 1.37.34 2.09.68a.82.82 0 01.36.4c-.78-.54-2.2.55-2.72-.33zM3 16.92a.93.93 0 01-.83-1 1 1 0 01.83-.85 1 1 0 01.83 1 .93.93 0 01-.83.85zm0 3.69a.92.92 0 01-1-.82 1 1 0 01.83-1H3a1 1 0 01.83 1 .93.93 0 01-.83.82zm2.33-4H4.22v-1h1.07zm0 3.68H4.22v-1h1.07v1.01zM14 22.11a7 7 0 00-2.45-.7c-1.27-.08-3.85.94-5.83.8v-8.68a9.49 9.49 0 003.19-.06c3.15-1.21 5.09.14 5.09.14v8.51zm2.18 1.42a.34.34 0 01-.25.41.64.64 0 00.79-.35c.18.76-.58.8-.82.85 0 0 .39.11.41.36 0 .64.46.59.55.54s-.14.46-.61.11c-.07.08.13.2.17.51s0 .78.5 1c-.28.23-.62-.36-.65-.29s.4.29-.07 1.4c-.22-.12-.1-.1-.35-.39s-.26-.2-.1.06A1.92 1.92 0 0116 29.1c-.23-.1-.17-.28-.44-.53a1.25 1.25 0 00.36.88 2.2 2.2 0 01.66 1.06 9.75 9.75 0 01-.13 1.43c-.24 0-.43-.69-.49-.65a1.28 1.28 0 00.47 1c.21.62.12 1 .07 1s-.31-.63-.44-.52a2.82 2.82 0 010 2.62c-.13-.5-.19-.87-.35-1.44-.34.27-.42.66-.83 1a6.75 6.75 0 00-.67-2.56l-.77 2a3.49 3.49 0 000 2.62c-.77-1.09-.85-3.12-.19-3.39.06-.15 0-.62-.19-.56a1.17 1.17 0 01-.2.66c-.51-.15-.28-.77-.23-1 .65-.79.24-1 .21-1-.07.18-.13.41-.33.49a2.46 2.46 0 01.67-2.57c0-.32-.36.24-.62.22a1.42 1.42 0 011.1-1.68h.19c-.22-.07-.33-.11-.38-.29.34 0 1.41-.13 1.24-1-.11.11-.14.26-.42.43s-.39.12-.5 0c.5-.17.34-.77-.32-.6a.45.45 0 01-.5-.38c.14.14.44 0 .61-.07a.88.88 0 011.2.23l.07.13s.33-.69-.71-.88a.92.92 0 00-1-.61c-.23-.82-.93-.42-.91 0-.74-.54 0-1.24.32-1.35s.16.68.53.57c.09 0-.29-.45-.14-.65.33-.19.32.25.49.08a.81.81 0 01.69-.47c.76-.11 1.35.72 2.09.31zM23 22.25c-1.65.12-5.09-.83-6-.83a4.5 4.5 0 00-2.67.71v-8.49s2.37-1.11 4.09-.47a10.48 10.48 0 004.58.43v8.65zm2.19-3.34c.91-.13 1.05.94 1.05.94a1 1 0 00-1-.06 4 4 0 01-1.94.67v-1.65s.2.34 1.88.1zm1.08-2.26v-.22c0-.17-.5-.27-.83-.12s-1.64.87-2.07.75v-1.65a2.28 2.28 0 001.81 0 1 1 0 011.09.91v.33zm-1.12 17.07a3 3 0 00-1.32.73 10 10 0 00-.64-3.9c-.35-.81.16 1.89.19 2.51 0 0-2.91-3.74-1.15-.84a4.69 4.69 0 001.17 1.26 3.38 3.38 0 01-.12 1.19c-.18.14-4-5-1.88-1.45A21.49 21.49 0 0023.15 35a2.81 2.81 0 01-.5.72s-.88-.65-.88-.69c-.07-.4-.07-.78-.56-.5 0 0-1.87-2.17-1-.65a2.54 2.54 0 00.73.86 2.5 2.5 0 00-.38.81c0 .17-1.62-1.75-1-.55.2.39.92.81.91.84a4.51 4.51 0 01-.22.65 15.35 15.35 0 01-1.49 1.31 3 3 0 01.86-1.31 5.15 5.15 0 01.56-.33.52.52 0 00-.29-.4 3.52 3.52 0 00-.86.05c.06-.33-.22-1-.22-1.82a1.55 1.55 0 00-.79.63c-.07 1.29-.35.9-.62 1.83-.28-.39 0-1-.26-1.31a2.39 2.39 0 01-.5-1.46c.09 0 .49-.48.13-1.39-.06-1.44.58-2-.56-3 .09 0 .16-.75.16-.75.84.45.68-.52 1-.71.52-.3.42-.62.19-1 1.49.43-.07 1.44.6 1.47a1 1 0 001-.44c.23-.35 0-.56.6-1.13.06-.05.23-.43-.27-.53-.11 0 0-.45 0-.45-.4.34-.53.81-1.18.51a.67.67 0 00-.67.07.32.32 0 01.2-.37c.71-.23.88-.51.84-.67-.09-.37-.12 0-.1-.38a1.42 1.42 0 01.33-.55c.48-.57.82-.36.94-.31a1.83 1.83 0 01.59-.3 3.42 3.42 0 011.94.37 1.31 1.31 0 00.87.12.27.27 0 01-.22.27c-.16 0-.36 0-.35.12s.24.09.38.13c.79.21 1.82.93 1.15.78-.08 0 .49.42.91 1L26.64 28c-.07.08-.6 0-2.29-1.57-.23.21 2 1.94 3 3.77a3.66 3.66 0 01-1.68-.81C25 28.75 24.26 27 24 27.28c0 0 1.24 2 1.88 3.19a5.39 5.39 0 01.6 2.1c.1 3.19-.38 3-.38 3-.74-2.51-1.09-5.43-2.18-6.78-.44-.53 1.16 2.36 1.23 5zm-3.3 2.87c-.34.29-.56.4-.48.25s.14-.3.19-.42.29.17.29.17zm-.22-.4a5 5 0 00.11-.69v-.17l.77.63a3.23 3.23 0 01-.51.47c-.12-.1-.4-.21-.39-.24zM24 37c-1 1-2.52.64-3.72 1.17s-1.87 1.4-3 1.65c-.34.11-.39.28-.18.27a1.85 1.85 0 001.93.17c.37-.19 1.51-.83 1.71-.87a9 9 0 01-1.58 1.44 5.28 5.28 0 01-3.11.41c-.61-.12-1.08.45-.93.44a.86.86 0 01.92.24c.4.32 1 .71 1.48.13a1.19 1.19 0 011.68.12c-.8 0-.72 1.38-2.22 1.21-.56 0-1.79-1.27-2.13-.88-.63.7 1.33 1.36.48 2.24s-1.68-.63-1.68-.63c.48.2 1.36.33 1-.45a2.1 2.1 0 01-.45-1.15c-.07-.29-1.82 2.25-3 1.1A9.41 9.41 0 009 41.83c2.21-.19 2.55.7 2.65.84.71.95 1.36 0 1.52-.19s.55-.62.44-.67a3.16 3.16 0 00-2.57-.16c1.56-2.15 2.78-.14 2.78-.14.17.11 0-1.27-1.59-1.35-1 0-1.82.82-2.49.82a4.33 4.33 0 01-2.57-2.1c1 .72 2.18 1.13 2.94.67 1.43-.85 3.23.44 3.32.28A3.41 3.41 0 009.71 39c-1 .55-1.36-.41-1.94-.42a1.87 1.87 0 012-.41c.08 0-.41-.41-.76-.45a16.16 16.16 0 01-4.44-1s.23-.54 1.4-.15c0 0-1-.64-1-1.46 0-.51.28-1-.11-1.48 1.58-.06.46 2.14 1.56 2.7a.79.79 0 01.17-.94 1.75 1.75 0 001.19 1.09.71.71 0 00.2-.25 3.65 3.65 0 01-.35-2.41c.09 0 .24.32.35.54a6.75 6.75 0 00.68 1.8 4.5 4.5 0 00.64.8 1.5 1.5 0 000-.73 1.51 1.51 0 01.35-1.6c.3.86.71.61.76 1a2.09 2.09 0 010 .93c0 .61.59.79 1.08 1.18a5.46 5.46 0 012.34 1.71c.24-1.31-3.3-1.57-2.84-4.1-.05-1 .12-1.09-.59-1.71 1.42 0 2.19 2.37 2.27 2.79.14.78.61.82 1.26 1.84.1 0-1.16-2.71.34-5.06a3.94 3.94 0 01.27 2 3.26 3.26 0 000 1.32 2.83 2.83 0 011-1.85c.07.54.58 1.37.09 2.27-.59 1.08-.63.69-.64 2a5.81 5.81 0 01.61-1.43c.87-1.08.25-1.66 1.09-2.59.07.46.19.28.24.69.11.94-.86 2-.65 1.93a1.13 1.13 0 00.78-1s.36.65 0 .86a1.14 1.14 0 00-.62 1.28c.47-.57 1.13-1.2 1-2 .06-.49.59-.69.69-1.82a.81.81 0 01.4-.52c-.08.64.41 1.3-.15 2.08.13.07.6-.61 1.3-.36-1.4.25-1 1.77-2.06 2.47-.33.21-.27.45-.37.48 1-.06 1.7-1.2 1.83-1.29 1-.65 1.17-.75 1.56-1.8.15-.41 0-.58.57-1.12a3.53 3.53 0 01-.21 1.92c-.17.5-.77 1-.65 1A5.31 5.31 0 0023.54 35a3.24 3.24 0 011.51-1c-.09.17-.44.46-.46.77a2.49 2.49 0 01-.5 1.37c.16.2.47-.37.78-.08-.42.14-.6.6-.93.87zm.44-.15a5.64 5.64 0 01-.87 2.1c-.32.46-.45-.43-.17-1.3a2.44 2.44 0 001-.8zm-2-19.08a.86.86 0 00-.27-.05.08.08 0 00-.07.07.07.07 0 00.07.07 1.41 1.41 0 00.29 0c.08 0 .06-.11 0-.13zm-.29.35a.93.93 0 00.29.05c.07 0 0-.11 0-.14a1.31 1.31 0 00-.28 0c-.08 0-.12.11 0 .13zm0 1.65l-.35-.29-.35.24a2.13 2.13 0 00-.34-.33c-.09.06-.36.31-.48.37.17 0 .42.06.42.22v1a1.15 1.15 0 00.37 0v-1.12l.14-.08a1.81 1.81 0 00.33.29 2.76 2.76 0 00.27-.23c.09-.08 0-.14-.07-.07zm-.46-1.31a1.33 1.33 0 00.22-.65.87.87 0 00-.55-.77 1.14 1.14 0 00-.79 1c0 .26.22.8.68.8a5.46 5.46 0 01.43-.38zm-.29.11a1.44 1.44 0 01-.49-.49.53.53 0 01.18-.71.8.8 0 01.49.48 1.07 1.07 0 01-.19.72zm0-2l.34-.38a1 1 0 01-.24-.23 6.46 6.46 0 010-.88.83.83 0 00-.56-.25 1.11 1.11 0 00-.49.39.15.15 0 000 .2.65.65 0 00.15.1.92.92 0 00-.24.54.91.91 0 00.28.54 1.49 1.49 0 01.57-.3.43.43 0 00.19.28zm-.24-.88a2.2 2.2 0 01-.63-.32v-.1a.28.28 0 01.22-.21c.06 0 .4.18.39.28a2 2 0 010 .35zm0 .52a.9.9 0 00-.28.08.57.57 0 01-.15-.69h-.08a1.92 1.92 0 00.51.22v.39zm-1-1.56a3.42 3.42 0 01-.64 0 .58.58 0 010-.45c0-.1 0-.14-.08 0a1.37 1.37 0 01-.59.6c-.15.06.18.19.15.19a5 5 0 00.16 1.1c.05.13.2.34.3.27s.21-.32.25-.36 0-.17-.06-.1-.13 0-.15-.11a4.29 4.29 0 01-.06-.88l.71-.08v-.14zm-1.78 1.48l.27-.35a.56.56 0 01-.41-.22v-.86l-.24-.28h-.09l-.43.38c0 .07.07.07.13 0l.31.18v.83a.66.66 0 00.22.32zm-.22-1.91l.15-.13v-.21l-.2-.2-.2.17v.24l.13.13zm-.69-.22h-.63c-.14 0-.14.09 0 .1s.14 0 .2.19a3.39 3.39 0 01-.29 1 4.29 4.29 0 01-.37-.85c0-.06.13-.12.19-.14s.1-.1 0-.12L15.39 14c-.1 0-.15.11 0 .11a.39.39 0 01.4.17 10.06 10.06 0 01.79 1.78c.06-.1.56-1.56.59-1.72a.47.47 0 01.29-.34c.16 0 .14-.11 0-.12zm-2.4 3.54a.74.74 0 00.53.82 1.56 1.56 0 001 0c.12 0 .19 0 .19.06s.09.05.09 0v-.61m-.09 0c0 .08 0 .11-.09.23a.67.67 0 01-1 .06.47.47 0 01-.13-.15c-.1-.14-.2-.33-.08-.36a4.49 4.49 0 01.73.06 4.6 4.6 0 01.52.06s.1.07.1 0v-.38c0-.07-.05 0-.1 0a2.62 2.62 0 01-.54.12 2.73 2.73 0 01-.7 0c-.12 0-.08-.28 0-.42a.74.74 0 011-.1.52.52 0 01.11.1.32.32 0 01.08.24c0 .05.09.06.09 0v-.73s-.09-.06-.09 0-.1.08-.2.05a2.13 2.13 0 00-1 .16 1 1 0 00-.56.79zm-1.64.82a16.66 16.66 0 010 1.87c-.07.21.15.24.29.34a2.64 2.64 0 01.35-.4c.08-.06 0-.1 0-.08s-.23 0-.24-.12v-1.6zm1.23 1.22a.88.88 0 00-.27.51.64.64 0 00.19.46 2.49 2.49 0 01.6-.42c0 .14.13.16.25.25l.38-.45c.06 0 0-.1-.05 0s-.14 0-.27-.12a4.82 4.82 0 010-.76c-.12-.13-.24-.31-.38-.3s-.48.39-.55.48a.47.47 0 000 .37zm.14.1c.12.07.18 0 .36 0v.27a1.18 1.18 0 01-.29.16c-.09-.07-.23-.13-.07-.44zm-.09-.53c.08-.11.12-.14.18-.14s.27.15.26.25a1.93 1.93 0 010 .34.45.45 0 01-.45-.12.47.47 0 010-.33zm1.29-.23c-.14.06.18.19.16.18a5.31 5.31 0 000 1.14.32.32 0 00.36.15c.12-.05.26-.27.3-.31s0-.13 0-.06-.26 0-.28 0a6.31 6.31 0 010-.87h.29c.05 0 .05-.15 0-.15s-.26 0-.27-.05a.84.84 0 010-.41c0-.1 0-.14-.08 0a1.16 1.16 0 01-.51.47zm.07-1.64a1.19 1.19 0 01-.36.86c.33-.09.38-.29.56-.52a1.49 1.49 0 00.42.41 4.49 4.49 0 00.43-.44 1.2 1.2 0 01-.67-.46.3.3 0 010-.36c.07.09.53.3.74-.06a1 1 0 01-.51-.35 2.92 2.92 0 01-.37.34.53.53 0 00-.37-.28 3.2 3.2 0 01-.51.4v.1l.3-.17a.57.57 0 01.34.52zm1.59.05a.61.61 0 01.26-.35c.09.1.19.22.33.22a.39.39 0 00.32-.12c-.11-.09-.37-.37-.42-.42s-.71.37-.75.72a.89.89 0 00.31.88.39.39 0 00.43.14 4.6 4.6 0 00.52-.47s0-.08-.07 0 0 .06-.09.07a.72.72 0 01-.46 0 .63.63 0 01-.38-.61zm-.23 1.62c-.08.09-.23.18-.37.34a.32.32 0 01.27.14 3.14 3.14 0 010 .75c0 .17.12.21.26.35a4 4 0 00.64-.28.44.44 0 00.27.33c.1 0 .15-.12.25-.22-.1-.07-.09-.08-.12-.21a5.75 5.75 0 010-.83 2 2 0 00-.35-.37l-.38.36c.12 0 .34 0 .35.13a2.91 2.91 0 010 .59c0 .21-.59.11-.59 0v-.75a1.14 1.14 0 00-.28-.3zm-3.72 5a3.54 3.54 0 01-.87-.38.86.86 0 00-.85.21c0 .11.12.17.45 0a.36.36 0 000 .51.83.83 0 01-.37-.11c0 .11.13.15.21.2.55.23.91-.3 1.39-.4zm-.93.28s.15-.16.15-.27a.41.41 0 00-.15-.26 3.3 3.3 0 01.53.27zm-3-4.17l.16-.18c-.18 0-.1 0-.19-.11v-.73l-.23-.34h-.09l-.36.33c-.1.09 0 .13.1 0l.24.12v.77c0 .09.1.11.22.23l.15-.15zm.08-2.52a.67.67 0 00.62.48 4.25 4.25 0 01.25-.39c.1-.13 0-.2-.07-.06s-.33 0-.43-.1-.22-.46-.11-.58.26-.06.46-.07.16-.13.19-.19l-.34-.12a4.71 4.71 0 00-.42.33.73.73 0 00-.2.74zm.52 1.91a.71.71 0 00-.23.48.46.46 0 00.25.43 1.73 1.73 0 01.57-.3 1.27 1.27 0 00.34.27l.31-.29c.05-.05 0-.13-.05-.06s-.19 0-.23 0a2.58 2.58 0 010-.92c.07 0-.31-.42-.45-.41a1.21 1.21 0 00-.55.39.7.7 0 000 .43zm.51.07a.55.55 0 01-.43-.18.42.42 0 010-.27c.07-.11.07-.15.14-.15s.34.18.33.28a1.71 1.71 0 010 .32zm-.39 0a.45.45 0 00.39.06v.33a.81.81 0 00-.29.09c-.09 0-.36-.27-.11-.48zm1.12-1.49l.16-.18c-.18 0-.18 0-.28-.1v-.84l-.16-.23H13l-.36.33c-.1.09 0 .13.1 0l.19.11v.79c0 .09.11.13.22.25l.21-.18zm-.29-2.93c-.07 0-.19.13.25.18.07-.05.16-.21-.25-.23zm0-.26c-.08 0-.19.19.25.18.07-.05.12-.21-.25-.23zm.1 1.38l-.15-.24-.19.17v.23l.11.12H13l.15-.13zm-.38-1.79a1 1 0 00-.62-.31 1 1 0 00-.77.44c-.15.23 0 .44.23.59-.13.1-.3.27-.47.42a1.1 1.1 0 00.62.23 1.22 1.22 0 00.75-.3c.31-.24.2-.5-.11-.69h-.09a3.31 3.31 0 00.41-.35zm-.77.6a3.36 3.36 0 01.33.16c.17.09.08.27-.1.36s-.51-.16-.56-.25.17-.16.33-.27zm.33-.44l-.19.15H12c-.16 0-.23-.14-.31-.24s.12-.18.22-.17a1.16 1.16 0 01.43.25zm-1.33.68a.62.62 0 01-.72-.35c.19-.19.5-.5.69-.66-.12-.12-.18-.31-.4-.33a.91.91 0 00-.74.81c-.08.56.45.86.87.88.14 0 .31-.18.39-.22s.14-.18-.09-.13zm-.79-.5c-.12-.38-.08-.51.16-.69a.62.62 0 00.26.27c-.11.12-.32.38-.4.38zm-.51-.34c.07-.07 0-.13-.08-.06s-.18-.2-.25-.29a1.86 1.86 0 01-.35.22c-.07-.08-.17-.08-.32-.2l-.37.32c.18 0 .31.06.32.21s0 .88 0 1a1 1 0 00.34 0v-1.16a.26.26 0 00.13-.08 1.24 1.24 0 00.25.26 2.43 2.43 0 00.32-.24zm-1.45 2a.94.94 0 00-.58.45.77.77 0 000 .4l.07.06a.6.6 0 00-.25.41.5.5 0 00.33.41.6.6 0 01.4-.27.41.41 0 00.14.31c.06-.08.33-.3.38-.35s0-.12 0-.06-.14 0-.16-.06a6.91 6.91 0 010-.91c-.12-.13-.23-.4-.36-.39zm0 .82c-.22.14-.29.13-.44 0a.36.36 0 010-.32c.07-.1.19-.21.25-.21a.53.53 0 01.22.31 1.13 1.13 0 010 .26zm0 .4a.2.2 0 000 .11l-.16.06c-.08-.07-.46-.2-.21-.4.15.09.21 0 .36-.08a1.6 1.6 0 010 .31zm-.17-1.7a.27.27 0 01-.08-.16v-.59c0-.06-.12-.05-.12 0a.58.58 0 01-.07.35.5.5 0 01-.67.26.45.45 0 01-.23-.2 1 1 0 01-.13-.48 1.07 1.07 0 01.14-.46.51.51 0 01.7-.16.55.55 0 01.2.23 2.25 2.25 0 01.06.36c0 .06.11.05.11 0v-.84s-.1-.06-.1 0a.12.12 0 01-.16.1 1.19 1.19 0 00-.83 0 1 1 0 00-.51.77.72.72 0 00.48.8 1.15 1.15 0 00.89 0c.12 0 .13 0 .19.13s.18.05.11-.06zM6.45 17a.85.85 0 000 1.1.66.66 0 00.65.19 1.68 1.68 0 01.25-.29.67.67 0 01-.58-.13.64.64 0 01-.14-.87c.19-.28.46.12.51.18a3.44 3.44 0 01.27-.18l-.26-.35a1.71 1.71 0 00-.7.49zm.15 2.71a1 1 0 00.71 1 2.51 2.51 0 01.32-.48c.1-.12 0-.15-.1-.06s-.46 0-.56-.16l.81-.66a1.25 1.25 0 01-.36-.58c-.17.16-.73.39-.82.98zm.55-.61a1.19 1.19 0 00.28.42 3.28 3.28 0 01-.52.4c-.16-.16-.25-.49.24-.78zm1.16-.21a2.82 2.82 0 01-.36.33c.07.09.2.19.21.34v1h.29v-1.1l.18-.15c.06.05.2.08.2.18a3.86 3.86 0 010 .68.74.74 0 00.08.53l.44-.35c.06-.05 0-.09 0-.07a.18.18 0 01-.11 0 7.22 7.22 0 000-.87C9.09 19.11 9 19 8.9 19a2.31 2.31 0 01-.39.31 1.09 1.09 0 01-.22-.36zm1.2-.72a1.79 1.79 0 00.22-.17c.08-.06 0-.13-.05-.07s-.19-.07-.2-.07a2.73 2.73 0 01-.08-.76h.5v-.14s-.41.05-.42 0a.78.78 0 010-.52v-.09a1.48 1.48 0 01-.49.59c-.14.06-.12.09 0 .12a.3.3 0 01.14.1 2.27 2.27 0 000 1c.07.11.26.24.34.16zm1.5.16a.53.53 0 01-.3.27 2.42 2.42 0 00.31.25l.29-.31a.37.37 0 01-.31-.17zm-.69-.33a4.38 4.38 0 00.61.05.68.68 0 00.4-.83c-.13-.35-.49-.28-.74-.36s-.33-.21-.08-.38.67.12.7.18.1.1.1 0v-.38c0-.1-.08-.11-.09 0s-.11.06-.2.06a1.14 1.14 0 00-.55.08c-.13.08-.45.32-.27.62s.7.31.85.41a.29.29 0 010 .41.12.12 0 010 .05.78.78 0 01-.74-.06.64.64 0 01-.16-.33c0-.12-.12-.11-.12 0v.62c0 .2.12.07.13 0s.06-.09.12-.09zm-.63 1.3c-.11.08.14.2.12.2a2 2 0 00.07.89c.12.18.32.19.36.09a2.26 2.26 0 01.26-.37c.07-.06 0-.12-.06-.06a.23.23 0 01-.29 0 1.32 1.32 0 010-.56h.29c.05 0 0-.14 0-.14h-.3a2.53 2.53 0 010-.55c0-.1 0-.14-.07 0a1.94 1.94 0 01-.4.62z"/></g></g></g></svg>